<?xml version="1.0" encoding="UTF-8"?>
<svg width="40" height="40" viewBox="0 0 40 40" fill="none" xmlns="http://www.w3.org/2000/svg">
  <circle cx="20" cy="20" r="20" fill="#007AFF"/>
  <path d="M20 12C15.58 12 12 15.58 12 20C12 24.42 15.58 28 20 28C24.42 28 28 24.42 28 20C28 15.58 24.42 12 20 12ZM20 26C16.69 26 14 23.31 14 20C14 16.69 16.69 14 20 14C23.31 14 26 16.69 26 20C26 23.31 23.31 26 20 26Z" fill="white"/>
  <path d="M20 16C18.34 16 17 17.34 17 19C17 20.66 18.34 22 20 22C21.66 22 23 20.66 23 19C23 17.34 21.66 16 20 16Z" fill="white"/>
</svg> 